<svg width="29px" height="29px" viewBox="0 0 29 19" version="1.1" xmlns="http://www.w3.org/2000/svg">
    <defs>
        <polygon id="path-1" points="0 29 29 29"/>
    </defs>
                <g id="Group-9" transform="translate(0.000000, 0.709000)">
                    <path d="M15.8 15.787c-.481-2.343-2.221-4.653-3.414-4.792-1.47.474-2.16 1.24-3.84 2.48-1.108.816-2 1.162-2 1.162s2.13 3.977 4.867 3.017c1.198-.419 2.178-2.763 4.387-1.867"
                          id="Fill-1" fill="#23B175"/>
                    <path d="M19.041 18.773c2.035-3.94 5.45-5.922 5.45-5.922s-1.752-1.65-4.77-2.467c-3.628-.979-6.092.01-6.092.01s2.604 1.326 3.39 5.66c.46 2.54 1.9 2.72 2.023 2.72"
                          id="Fill-3" fill="#EC5956"/>
                    <path d="M14.267.46C12.637.369 10.864.52 8.94 1 3.403 2.386-2.1 8.276 1.2 12.852c3.003 3.942 7.578-1.401 10.724-3.002-1.225-3.147-.053-6.537 2.343-9.39"
                          id="Fill-5" fill="#27A8E0"/>
                    <path d="M15.596.592c-2.366 2.626-3.604 5.77-2.639 8.813 6.775-2.531 12.354 2.579 12.354 2.579s1.353-3.505-1.323-6.848c-1.607-2.01-4.49-3.984-8.392-4.544"
                          id="Fill-7" fill="#FAAD40"/>
                </g>
</svg>