<svg fill="#fff" height="512pt" viewBox="0 0 512 512" width="512pt" xmlns="http://www.w3.org/2000/svg">
    <path d="m495 496.210938v-30.167969h-15v-30h-15v-30h-420v30h-15v30h-15v30.167969h-15v15h512v-15zm-435-75.167969h390v15h-390zm-15 30h420v15h-420zm-15 30h450v15.171875h-450zm0 0"/>
    <path d="m112.5 391.042969v-150h7.5v-15h-67.5v15h7.5v150h15v-150h22.5v150zm0 0"/>
    <path d="m195 241.042969h7.5v-15h-67.5v15h7.5v105h52.5zm-37.5 90v-90h22.5v90zm0 0"/>
    <path d="m367.5 241.042969h7.5v-15h-67.5v15h7.5v105h52.5zm-37.5 90v-90h22.5v90zm0 0"/>
    <path d="m450 391.042969v-150h7.5v-15h-67.5v15h7.5v150h15v-150h22.5v150zm0 0"/>
    <path d="m30 211.042969h450v-37.5h30v-34.445313l-253.984375-139.097656-256.015625 139.082031v34.460938h30zm435-15h-420v-22.5h420zm-450-48.039063 240.984375-130.917968 239.015625 130.898437v10.558594h-480zm0 0"/>
    <path d="m285 391.042969v-150h7.5v-15h-75v15h7.5v150h15v-150h30v150zm0 0"/>
    <path d="m142.5 361.042969h15v30h-15zm0 0"/>
    <path d="m180 361.042969h15v30h-15zm0 0"/>
    <path d="m315 361.042969h15v30h-15zm0 0"/>
    <path d="m352.5 361.042969h15v30h-15zm0 0"/>
    <path d="m76.875 128.542969h356.25v15h-356.25zm0 0"/>
    <path d="m210 91.042969h90v15h-90zm0 0"/>
    <path d="m226.875 57.292969h54.375v15h-54.375zm0 0"/>
</svg>